<svg width="479" height="205" viewBox="0 0 479 205" fill="none" xmlns="http://www.w3.org/2000/svg">
<g clip-path="url(#clip0_44_1154)">
<path d="M13.1968 166.873C-0.115171 154.721 8.28935 111.873 9.26796 88.3029C10.2466 64.7332 12.2182 28.3925 49.506 22.5036C86.7939 16.6148 190.872 4.83718 291.971 5.81625C393.069 6.79532 435.279 7.77439 449.023 18.5874C462.767 29.4003 467.674 36.2682 468.653 46.0877C469.631 55.9072 478.467 163.936 468.653 166.873C458.838 169.81 450.001 199.283 350.86 197.311C251.718 195.338 187.922 202.408 132.947 197.412C77.972 192.415 35.7767 187.491 13.1968 166.873Z" fill="#F9D9D9" stroke="#E5CACA" stroke-width="10.8641" stroke-miterlimit="10"/>
<path d="M142.329 132.938C142.016 135.125 141.391 137.078 140.454 138.797C139.548 140.484 138.407 141.953 137.032 143.203C135.657 144.453 134.11 145.5 132.391 146.344C130.704 147.219 128.923 147.922 127.048 148.453C125.204 148.984 123.329 149.359 121.423 149.578C119.516 149.828 117.688 149.953 115.938 149.953C113.532 149.953 111.157 149.688 108.813 149.156C106.469 148.656 104.157 147.938 101.876 147C99.6256 146.094 97.3913 145 95.1725 143.719C92.985 142.438 90.8131 141.031 88.6569 139.5L95.5006 131.438C97.9381 133.594 100.344 135.297 102.719 136.547C105.126 137.766 107.282 138.688 109.188 139.312C111.407 140.062 113.532 140.562 115.563 140.812C117.813 140.938 119.907 140.766 121.844 140.297C123.782 139.828 125.469 139.156 126.907 138.281C128.376 137.375 129.548 136.312 130.423 135.094C131.298 133.844 131.813 132.531 131.969 131.156C132.063 130 131.86 128.953 131.36 128.016C130.86 127.047 130.126 126.172 129.157 125.391C128.188 124.578 127.048 123.875 125.735 123.281C124.423 122.656 123.016 122.109 121.516 121.641C120.048 121.141 118.516 120.719 116.923 120.375C115.36 120 113.844 119.688 112.376 119.438C110.594 119.125 108.719 118.719 106.751 118.219C104.782 117.688 102.844 117 100.938 116.156C99.0319 115.312 97.235 114.266 95.5475 113.016C93.86 111.766 92.3913 110.266 91.1413 108.516C89.9225 106.734 88.985 104.672 88.3288 102.328C87.7038 99.9844 87.5006 97.2969 87.7194 94.2656C87.9069 91.7656 88.4225 89.5156 89.2663 87.5156C90.1413 85.4844 91.2506 83.6719 92.5944 82.0781C93.9694 80.4844 95.5319 79.125 97.2819 78C99.0631 76.8438 100.954 75.8906 102.954 75.1406C104.954 74.3906 107.016 73.8594 109.141 73.5469C111.298 73.2031 113.438 73.0469 115.563 73.0781C118.501 73.2344 121.454 73.6875 124.423 74.4375C125.673 74.75 126.985 75.1562 128.36 75.6562C129.766 76.125 131.173 76.7031 132.579 77.3906C133.985 78.0469 135.376 78.8438 136.751 79.7812C138.126 80.6875 139.438 81.7344 140.688 82.9219L135.438 91.2188C134.438 90.0938 133.376 89.1094 132.251 88.2656C131.126 87.4219 129.985 86.6875 128.829 86.0625C127.704 85.4375 126.579 84.9062 125.454 84.4688C124.329 84.0312 123.266 83.6719 122.266 83.3906C119.86 82.7344 117.501 82.3594 115.188 82.2656C112.344 82.2656 109.813 82.7031 107.594 83.5781C105.376 84.4219 103.501 85.5312 101.969 86.9062C100.469 88.25 99.3131 89.7656 98.5006 91.4531C97.7194 93.1094 97.3288 94.75 97.3288 96.375C97.3288 97.9688 97.7975 99.5156 98.735 101.016C99.7038 102.516 101.032 103.875 102.719 105.094C104.407 106.312 106.391 107.359 108.673 108.234C110.954 109.078 113.407 109.672 116.032 110.016C118.313 110.266 120.579 110.672 122.829 111.234C125.11 111.797 127.282 112.516 129.344 113.391C131.407 114.266 133.298 115.328 135.016 116.578C136.766 117.797 138.235 119.219 139.423 120.844C140.61 122.438 141.469 124.25 142.001 126.281C142.563 128.281 142.673 130.5 142.329 132.938ZM201.907 76.3125L201.719 85.2656L179.829 86.1094L180.485 145.266L170.126 145.453V86.4844L147.954 87.375L147.766 77.4844L201.907 76.3125ZM254.624 146.672C253.718 143.484 252.781 140.328 251.812 137.203C250.843 134.047 249.827 130.875 248.765 127.688L211.031 129.328C209.874 132.328 208.765 135.312 207.702 138.281C206.64 141.25 205.609 144.25 204.609 147.281L193.968 145.828C198.374 134.016 203.249 122.391 208.593 110.953C213.968 99.5156 219.687 88.1875 225.749 76.9688L238.874 77.2031C244.249 88.0469 249.156 99.1094 253.593 110.391C258.031 121.641 262.062 133.203 265.687 145.078L254.624 146.672ZM231.327 84.75C228.171 90.75 225.187 96.7812 222.374 102.844C219.562 108.875 216.874 114.984 214.312 121.172L245.999 119.812C243.874 113.812 241.593 107.922 239.156 102.141C236.718 96.3594 234.109 90.5625 231.327 84.75ZM332.343 101.859C332.249 104.266 331.765 106.469 330.89 108.469C330.015 110.469 328.859 112.281 327.421 113.906C325.984 115.5 324.312 116.938 322.406 118.219C320.499 119.469 318.468 120.547 316.312 121.453L329.952 142.922L320.249 146.109L307.124 124.219C305.624 124.5 304.062 124.734 302.437 124.922C300.843 125.109 299.077 125.203 297.14 125.203C295.577 125.203 293.859 125.141 291.984 125.016C290.14 124.859 288.202 124.594 286.171 124.219L286.359 144.094L276.468 144.469V78.1406C279.156 77.3281 281.843 76.7188 284.531 76.3125C287.218 75.9062 289.671 75.5938 291.89 75.375C294.452 75.1562 296.937 75.0156 299.343 74.9531C301.374 74.9531 303.624 75.0938 306.093 75.375C308.562 75.6562 311.031 76.1562 313.499 76.875C315.999 77.5938 318.406 78.5938 320.718 79.875C323.062 81.1562 325.109 82.7969 326.859 84.7969C328.64 86.7656 330.031 89.1562 331.031 91.9688C332.031 94.7812 332.468 98.0781 332.343 101.859ZM299.343 84.375C297.906 84.375 296.421 84.4375 294.89 84.5625C293.577 84.6562 292.124 84.7969 290.531 84.9844C288.937 85.1406 287.39 85.3906 285.89 85.7344L286.077 115.594C287.546 115.875 289.015 116.078 290.484 116.203C291.984 116.297 293.437 116.344 294.843 116.344C298.593 116.344 302.14 115.922 305.484 115.078C308.859 114.203 311.812 113.016 314.343 111.516C316.874 110.016 318.89 108.25 320.39 106.219C321.89 104.156 322.64 101.938 322.64 99.5625C322.64 97.1562 322.062 95.0156 320.906 93.1406C319.781 91.2656 318.187 89.6875 316.124 88.4062C314.062 87.0938 311.593 86.0938 308.718 85.4062C305.874 84.7188 302.749 84.375 299.343 84.375ZM392.343 76.3125L392.156 85.2656L370.265 86.1094L370.921 145.266L360.562 145.453V86.4844L338.39 87.375L338.203 77.4844L392.343 76.3125Z" fill="black"/>
</g>
<defs>
<clipPath id="clip0_44_1154">
<rect width="479" height="205" fill="white"/>
</clipPath>
</defs>
</svg>
